<?xml version="1.0" encoding="UTF-8"?>
<svg width="700pt" height="700pt" version="1.1" viewBox="0 0 700 700" xmlns="http://www.w3.org/2000/svg">
 <g>
  <path d="m294 42h168c18.566 0 36.371 7.375 49.496 20.504 13.129 13.125 20.504 30.93 20.504 49.496v336c0 18.566-7.375 36.371-20.504 49.496-13.125 13.129-30.93 20.504-49.496 20.504h-224c-18.566 0-36.371-7.375-49.496-20.504-13.129-13.125-20.504-30.93-20.504-49.496v-280c0-7.7305 6.2695-14 14-14h98v-98c0-7.7305 6.2695-14 14-14zm168 448c11.141 0 21.82-4.4258 29.699-12.301 7.875-7.8789 12.301-18.559 12.301-29.699v-336c0-11.141-4.4258-21.82-12.301-29.699-7.8789-7.875-18.559-12.301-29.699-12.301h-154v98c0 3.7148-1.4766 7.2734-4.1016 9.8984s-6.1836 4.1016-9.8984 4.1016h-98v266c0 11.141 4.4258 21.82 12.301 29.699 7.8789 7.875 18.559 12.301 29.699 12.301z"/>
  <path d="m191.91 177.91-19.797-19.797 112-112 19.797 19.797z"/>
 </g>
</svg>
